<svg xmlns="http://www.w3.org/2000/svg" width="32.447" height="35.217" viewBox="0 0 32.447 35.217"><defs><style>.a{fill:#ec1200;}.b{fill:#fff;}</style></defs><g transform="translate(0)"><path class="a" d="M783.176,181.351a4.119,4.119,0,0,0,.427-.065q.226-.047.446-.113c.155-.046.31-.1.463-.161s.314-.13.467-.205.312-.161.465-.249.308-.189.455-.291a6.864,6.864,0,0,0,.857-.7,7.182,7.182,0,0,0,.746-.83,6.276,6.276,0,0,0,.589-.937,5.533,5.533,0,0,0,.4-1.018c.05-.176.092-.354.126-.536a4.966,4.966,0,0,0,.069-.555c.013-.174.015-.348.013-.522s-.017-.36-.038-.541a5.351,5.351,0,0,0-.09-.545q-.057-.274-.138-.541a5.846,5.846,0,0,0-.432-1.033,5.168,5.168,0,0,0-.618-.912,4.479,4.479,0,0,0-.377-.4,4.221,4.221,0,0,0-.421-.348,4.561,4.561,0,0,0-.469-.3,4.945,4.945,0,0,0-.522-.247,4.783,4.783,0,0,0-.578-.189,5.232,5.232,0,0,0-.645-.124,6.363,6.363,0,0,0-.721-.048,7.3,7.3,0,0,0-.8.036,6.013,6.013,0,0,0-3.124,1.28,6,6,0,0,0,1.328-3.106,7.324,7.324,0,0,0,.05-.8,6.37,6.37,0,0,0-.04-.721,5.237,5.237,0,0,0-.113-.648,4.8,4.8,0,0,0-.18-.583,4.35,4.35,0,0,0-.239-.526,4.922,4.922,0,0,0-.291-.471,4.778,4.778,0,0,0-.344-.427,4.216,4.216,0,0,0-.39-.383,5.1,5.1,0,0,0-.9-.633,5.781,5.781,0,0,0-1.025-.446c-.178-.059-.358-.107-.539-.149s-.36-.073-.543-.1a5.18,5.18,0,0,0-.538-.046c-.174-.006-.35-.006-.524,0a5.6,5.6,0,0,0-.557.061,5.348,5.348,0,0,0-.539.115,5.661,5.661,0,0,0-1.025.39,6.624,6.624,0,0,0-.945.576,6.8,6.8,0,0,0-.84.731,6.928,6.928,0,0,0-.654.769,3.442,3.442,0,0,0-1.58-.608,7.956,7.956,0,0,1,6.049-3.671c3.575-.2,7.967,2.341,7.342,7.755,5.423-.543,7.9,3.885,7.64,7.458a8.2,8.2,0,0,1-6.986,7.179l-2.9.2a1.885,1.885,0,0,0-.467-1.616Z" transform="translate(-757.902 -160.582)"/><path class="b" d="M649.183,668.01l10.079-.708a1.174,1.174,0,0,1,1.236,1.391q-.717,3.753-1.431,7.508l1.375.2-.165,1.163-3.631-.522.168-1.163.624.09,1.333-6.982-10.018.7a1.175,1.175,0,0,1-1.253-1.272l1.012-11.817a3.443,3.443,0,0,0,1.637.147l-.237,2.8,2.812-1.083.446,1.086-3.374,1.3Z" transform="translate(-638.649 -646.206)"/><path class="b" d="M243.891,959.187A9.357,9.357,0,1,1,233.5,951.7l-.145,1.685a7.713,7.713,0,1,0,8.878,5.918Z" transform="translate(-225.348 -935.122)"/><path class="b" d="M633.6,380.938a2.522,2.522,0,1,1-1.781-.738,2.519,2.519,0,0,1,1.781.738" transform="translate(-620.836 -375.598)"/></g></svg>